<?xml version="1.0"?>
<svg width="694.34644" height="341.18503" xmlns="http://www.w3.org/2000/svg" xmlns:svg="http://www.w3.org/2000/svg" version="1.0">

 <g class="layer">
  <title>Layer 1</title>
  <g id="layer1">
   <g id="g2058">
    <path d="m210.09,213.79l43.16,0l0,14.11l-20.53,0l0,99.1l-22.63,0l0,-113.21" fill="#0079c2" fill-rule="nonzero" id="path26"/>
    <path d="m278.85,284.5l3.88,-56.6l1.29,0l3.88,56.6l-9.05,0zm-25.07,42.5l22.16,0l2.1,-30.06l10.67,0l2.11,30.06l22.15,0l-11.81,-113.21l-35.57,0l-11.81,113.21" fill="#0079c2" fill-rule="nonzero" id="path28"/>
    <path d="m345.38,287.38l0,21.34c0,2.88 2.23,3.72 3.53,3.72c2.13,0 3.62,-1.77 3.62,-3.72l0,-26.35c0,-3.53 -0.65,-7.42 -9.1,-7.42l-9.18,0l0,-12.44l9.55,0c6.41,0 8.73,-1.48 8.73,-8.44l0,-22.46c0,-1.95 -1.49,-3.71 -3.62,-3.71c-1.3,0 -3.53,0.74 -3.53,3.71l0,18.47l-22.64,0l0,-16.06c0,-7.88 0.93,-20.23 16.79,-20.23l18.75,0c15.87,0 16.89,12.35 16.89,20.23l0,18.1c0,12.34 -8.63,15.68 -15.41,15.4l0,1.12c15.22,-0.38 15.41,11.32 15.41,15.31l0,22.82c0,7.99 -1.02,20.23 -16.89,20.23l-18.75,0c-15.86,0 -16.79,-12.24 -16.79,-20.23l0,-19.39l22.64,0" fill="#0079c2" fill-rule="nonzero" id="path30"/>
    <path d="m390.01,213.79l52.43,0l0,113.21l-22.64,0l0,-99.1l-7.14,0l0,99.1l-22.65,0l0,-113.21" fill="#0079c2" fill-rule="nonzero" id="path32"/>
    <path d="m479.93,276.06l0,-48.16l2.97,0c2.41,0 4.18,2.04 4.18,5.66l0,36.84c0,3.62 -1.77,5.66 -4.18,5.66l-2.97,0zm-22.64,50.94l22.64,0l0,-38.51l12.99,0c15.78,0 16.8,-12.24 16.8,-20.23l0,-34.24c0,-7.88 -1.02,-20.23 -16.8,-20.23l-35.63,0l0,113.21" fill="#0079c2" fill-rule="nonzero" id="path34"/>
    <path d="m554.35,308.72c0,1.95 -1.48,3.72 -3.61,3.72c-1.3,0 -3.53,-0.84 -3.53,-3.72l0,-77.11c0,-2.97 2.23,-3.71 3.53,-3.71c2.13,0 3.61,1.76 3.61,3.71l0,77.11zm-29.78,-1.95c0,7.99 1.02,20.23 16.79,20.23l18.84,0c15.78,0 16.8,-12.24 16.8,-20.23l0,-72.75c0,-7.88 -1.02,-20.23 -16.8,-20.23l-18.84,0c-15.77,0 -16.79,12.35 -16.79,20.23l0,72.75" fill="#0079c2" fill-rule="nonzero" id="path36"/>
    <path d="m650.67,213.79l29.51,0l0,113.21l-22.64,0l0,-70.98l-0.83,0l-11.7,70.98l-18.09,0l-11.6,-70.98l-0.83,0l0,70.98l-22.65,0l0,-113.21l29.42,0l14.75,79.62l14.66,-79.62" fill="#0079c2" fill-rule="nonzero" id="path38"/>
    <path d="m180.74,59.01c-6.93,-30.34 -24.3,-55.02 -26.69,-59.01c-3.79,5.66 -17.64,27.46 -24.69,51.59c-7.69,27 -8.82,50.94 -6.17,74.42c2.64,23.57 12.6,47.79 12.6,47.79c5.28,12.62 13.21,26.26 18.37,32.94c7.56,-9.83 24.94,-39.16 30.36,-77.39c3.02,-21.34 3.15,-39.99 -3.78,-70.34zm-26.69,140.12c-3.41,-6.4 -8.7,-18.56 -9.2,-37.49c-0.13,-18.18 7.17,-33.87 9.31,-37.11c1.9,3.24 8.19,16.88 8.94,35.54c0.51,18.18 -5.54,32.57 -9.05,39.06zm24.68,-88.62c-0.26,11.6 -1.64,23.85 -3.4,31.18c0.63,-12.62 -0.89,-30.34 -3.78,-44.26c-2.9,-13.83 -11.09,-37.02 -17.63,-47.7c-6.04,10.21 -13.49,30.25 -17.38,47.61c-3.92,17.35 -4.03,38.41 -4.03,44.72c-1.04,-5.28 -3.64,-24.31 -2.9,-43.33c0.61,-15.68 4.28,-31.92 6.3,-39.35c7.68,-24.77 16.37,-40.64 18.01,-43.15c1.63,2.51 12.58,22.09 18.26,42.6c5.65,20.51 6.79,40.18 6.55,51.68" fill="#0079c2" fill-rule="nonzero" id="path40"/>
    <path d="m165.8,213.79l-52.69,0l0,35.36c0.04,0 0.08,-0.09 0.13,-0.09c12.41,-12.44 32.55,-12.44 44.97,0c12.42,12.34 12.42,32.47 0,44.91c-0.05,0.09 -0.11,0.09 -0.16,0.18c0,0 0,0 0,0c-0.07,0 -0.13,0.1 -0.19,0.19c-12.39,12.25 -28.57,18.37 -44.75,18.37c-16.26,0 -32.52,-6.12 -44.92,-18.56c-21.86,-21.8 -24.45,-55.67 -7.78,-80.36c2.24,-3.34 4.83,-6.49 7.78,-9.46c12.4,-12.43 28.66,-18.56 44.92,-18.56l0,-85c-62.47,0 -113.11,50.57 -113.11,113.02c0,62.46 50.64,113.12 113.11,113.12c32.57,0 61.91,-13.83 82.55,-35.82l0,-77.3l-29.86,0" fill="#0079c2" fill-rule="nonzero" id="path42"/>
   </g>
  </g>
  <rect fill="#ffffff" height="204" id="svg_6" stroke="#ffffff" width="87" x="116.05" y="2.01"/>
  <rect fill="#ffffff" height="134" id="svg_7" stroke="#ffffff" width="63" x="321.05" y="195.01"/>
 </g>
</svg>